<svg width="186" height="53" viewBox="0 0 186 53" fill="none" xmlns="http://www.w3.org/2000/svg">
<path d="M48.7132 8.90683C50.2116 8.90683 51.5682 8.89363 52.9247 8.90683C56.3759 8.94863 58.8362 10.6801 59.6143 13.8087C59.9091 14.9902 59.8802 16.2663 59.8758 17.4983C59.8758 18.198 59.4436 18.8184 58.6434 18.7568C57.8432 18.6952 57.8166 17.9868 57.7878 17.3399C57.7368 16.1782 57.7745 14.9902 57.5396 13.8593C57.2159 12.3016 55.855 11.316 54.2502 11.316C38.1078 11.3072 21.9646 11.3072 5.82068 11.316C4.9084 11.3218 4.03534 11.685 3.3915 12.3265C2.74765 12.968 2.38512 13.836 2.3828 14.7416C2.37098 25.4092 2.37098 36.0791 2.3828 46.7512C2.3828 48.7313 3.91001 50.2098 5.98249 50.2538C7.23706 50.2802 8.49385 50.2538 9.75063 50.2538H53.6406C56.3337 50.2538 57.8011 48.8347 57.8521 46.1814C57.872 45.2661 57.8521 44.3377 57.9629 43.4466C58.0582 42.9846 58.3087 42.2168 59.0136 42.2168C59.7184 42.2168 60.0975 42.9758 60.1329 43.396C60.3546 46.0538 60.2925 48.6895 58.1114 50.7026C56.9033 51.8446 55.2932 52.4723 53.6251 52.4517C38.1824 52.4517 22.7396 52.3857 7.29912 52.4979C3.4268 52.5309 -0.035457 50.069 0.02439 45.3057C0.0997529 39.2576 0.0421224 33.205 0.0421224 27.1569C0.0421224 23.6719 0.1596 20.1847 0.0110907 16.7063C-0.166234 12.5744 1.77325 9.83528 6.5189 8.86283C15.3829 7.04332 24.1959 4.9906 33.0267 3.03249C36.6973 2.21844 40.3613 1.38239 44.0341 0.581548C46.2684 0.0909199 48.6467 1.93243 48.7044 4.20736C48.7443 5.70784 48.7132 7.21053 48.7132 8.90683ZM18.5947 8.4228L18.6745 8.81222H46.7095C46.7095 7.33154 46.7206 5.90806 46.7095 4.48457C46.694 3.12049 45.8893 2.51546 44.5395 2.80368C36.6973 4.46991 28.8551 6.13833 21.0129 7.80896C20.2017 7.98277 19.3993 8.20279 18.5947 8.4228Z" fill="white"/>
<path d="M23.9388 39.8453C21.5538 39.2204 19.2198 38.5252 17.1739 37.8167C16.8327 37.6708 16.4694 37.5823 16.0988 37.5549C11.9029 37.3987 8.30988 34.3273 8.30988 28.6796C8.30988 23.0319 11.7721 19.4391 16.5444 19.4391C21.3166 19.4391 24.4641 23.1331 24.4641 28.3144C24.4641 32.8159 22.3651 35.7046 19.4281 36.7211V36.8245C21.1858 37.2645 23.1009 37.6825 24.5949 37.9444L23.9388 39.8453ZM22.0503 28.42C22.0503 24.8998 20.215 21.2872 16.4668 21.2872C12.6122 21.2872 10.7237 24.8272 10.7503 28.629C10.7326 32.3494 12.8028 35.7046 16.3693 35.7046C20.0155 35.7046 22.0592 32.4286 22.0592 28.42H22.0503Z" fill="white"/>
<path d="M38.7099 33.8345C38.7099 35.1348 38.7365 36.281 38.8163 37.2689H36.7704L36.6397 35.214H36.5865C36.1586 35.9381 35.5447 36.5364 34.8074 36.9477C34.0702 37.359 33.2361 37.5685 32.3905 37.5549C30.3956 37.5549 28.0128 36.4548 28.0128 32.037V24.671H30.3203V31.6476C30.3203 34.0413 31.0539 35.6562 33.1508 35.6562C33.8085 35.6454 34.4484 35.4419 34.9899 35.0712C35.5313 34.7005 35.9503 34.1791 36.1941 33.5727C36.3332 33.1979 36.4037 32.8016 36.4025 32.4022V24.671H38.7099V33.8345Z" fill="white"/>
<path d="M50.2227 37.2689L50.0387 35.6804H49.9612C49.5106 36.2762 48.9235 36.757 48.2486 37.0829C47.5737 37.4089 46.8304 37.5707 46.08 37.5549C43.5088 37.5549 42.1988 35.7596 42.1988 33.9379C42.1988 30.8929 44.9251 29.2274 49.8304 29.2516V28.992C49.8304 27.9514 49.54 26.0768 46.9489 26.0768C45.782 26.0809 44.6389 26.4053 43.6462 27.0141L43.1209 25.5048C44.1693 24.8272 45.6899 24.3849 47.2902 24.3849C51.1714 24.3849 52.1156 27.0251 52.1156 29.5398V34.2503C52.0983 35.2606 52.168 36.2704 52.324 37.2689H50.2227ZM49.8725 30.8401C47.3567 30.7873 44.4974 31.2317 44.4974 33.6783C44.4974 35.1612 45.4948 35.863 46.674 35.863C47.3446 35.8805 48.0033 35.6857 48.5549 35.3068C49.1064 34.9278 49.5221 34.3844 49.7417 33.7553C49.8237 33.5209 49.8678 33.2751 49.8725 33.027V30.8401Z" fill="white"/>
<path d="M56.4889 28.0812C56.4889 26.7809 56.4623 25.7138 56.3847 24.671H58.4306L58.5614 26.7545H58.6146C59.2419 25.5576 60.7114 24.3849 62.8083 24.3849C64.566 24.3849 67.2924 25.4256 67.2924 29.7467V37.2689H64.985V30.0085C64.985 27.9778 64.2247 26.2859 62.048 26.2859C61.3463 26.2956 60.6662 26.5284 60.1077 26.9502C59.5491 27.3719 59.1416 27.9603 58.9449 28.629C58.8338 28.9737 58.7806 29.3342 58.7875 29.6961V37.2689H56.4889V28.0812Z" fill="white"/>
<path d="M74.3721 21.054V24.671H77.677V26.4157H74.3721V33.2097C74.3721 34.7695 74.8154 35.6562 76.1032 35.6562C76.5514 35.6612 76.9985 35.6087 77.4331 35.5L77.5373 37.2183C76.8801 37.4447 76.1868 37.5499 75.4914 37.5285C74.4164 37.5285 73.552 37.1919 73 36.567C72.3461 35.8894 72.1134 34.7695 72.1134 33.2867V26.4157H70.1473V24.671H72.1134V21.6524L74.3721 21.054Z" fill="white"/>
<path d="M92.2575 30.8643C92.2575 35.5242 89.0058 37.5527 85.9381 37.5527C82.5024 37.5527 79.8536 35.0556 79.8536 31.0733C79.8536 26.8557 82.6332 24.3828 86.1464 24.3828C89.7927 24.385 92.2575 27.0141 92.2575 30.8643ZM82.1877 30.9941C82.1877 33.7531 83.7858 35.8344 86.0422 35.8344C88.2455 35.8344 89.8968 33.7795 89.8968 30.9413C89.8968 28.8072 88.8218 26.101 86.0954 26.101C83.3691 26.101 82.1877 28.6026 82.1877 30.9963V30.9941Z" fill="white"/>
<path d="M95.8239 28.0812C95.8239 26.7809 95.7973 25.7138 95.7175 24.671H97.7368L97.841 26.7017H97.9208C98.6278 25.5048 99.8093 24.385 101.911 24.385C102.701 24.3752 103.475 24.6135 104.121 25.0659C104.767 25.5182 105.252 26.1616 105.508 26.9041H105.559C105.911 26.2651 106.393 25.706 106.975 25.2628C107.779 24.6537 108.771 24.3424 109.782 24.3828C111.459 24.3828 113.951 25.4828 113.951 29.8501V37.2667H111.688V30.1383C111.688 27.7181 110.801 26.2595 108.935 26.2595C107.623 26.2595 106.601 27.2231 106.206 28.3408C106.086 28.7113 106.024 29.0979 106.022 29.4871V37.2689H103.768V29.7203C103.768 27.716 102.881 26.2595 101.119 26.2595C99.6785 26.2595 98.6278 27.4057 98.2621 28.5498C98.1333 28.909 98.071 29.2884 98.0781 29.6697V37.2689H95.8239V28.0812Z" fill="white"/>
<path d="M125.375 37.2689L125.191 35.6804H125.113C124.663 36.2762 124.076 36.757 123.401 37.0829C122.726 37.4089 121.983 37.5707 121.232 37.5549C118.663 37.5549 117.351 35.7596 117.351 33.9379C117.351 30.8929 120.077 29.2274 124.983 29.2516V28.992C124.983 27.9514 124.695 26.0768 122.101 26.0768C120.934 26.0809 119.791 26.4053 118.799 27.0141L118.273 25.5048C119.322 24.8272 120.844 24.3849 122.443 24.3849C126.324 24.3849 127.268 27.0251 127.268 29.5398V34.2503C127.255 35.2609 127.329 36.2708 127.49 37.2689H125.375ZM125.034 30.8401C122.518 30.7873 119.659 31.2317 119.659 33.6783C119.659 35.1612 120.656 35.863 121.835 35.863C122.506 35.8809 123.165 35.6862 123.716 35.3072C124.268 34.9282 124.684 34.3846 124.903 33.7553C124.985 33.5209 125.029 33.2751 125.034 33.027V30.8401Z" fill="white"/>
<path d="M131.641 28.0812C131.641 26.7809 131.617 25.7138 131.537 24.671H133.583L133.714 26.7545H133.767C134.396 25.5576 135.864 24.3849 137.963 24.3849C139.718 24.3849 142.445 25.4256 142.445 29.7467V37.2689H140.137V30.0085C140.137 27.9778 139.377 26.2859 137.2 26.2859C136.499 26.2956 135.819 26.5284 135.26 26.9502C134.701 27.3719 134.294 27.9603 134.097 28.629C133.987 28.9738 133.934 29.3343 133.942 29.6961V37.2689H131.641V28.0812Z" fill="white"/>
<path d="M149.42 21.131C149.447 21.912 148.871 22.5368 147.953 22.5368C147.767 22.5393 147.583 22.5044 147.412 22.4343C147.24 22.3642 147.085 22.2603 146.955 22.1289C146.825 21.9975 146.723 21.8413 146.656 21.6698C146.589 21.4983 146.557 21.315 146.563 21.131C146.558 20.9416 146.592 20.7533 146.663 20.5775C146.734 20.4016 146.84 20.2419 146.975 20.1081C147.11 19.9743 147.271 19.8692 147.448 19.7992C147.626 19.7292 147.815 19.6957 148.006 19.7009C148.196 19.6942 148.385 19.7268 148.561 19.7966C148.738 19.8665 148.898 19.9721 149.031 20.1066C149.164 20.2411 149.267 20.4017 149.334 20.5781C149.401 20.7544 149.43 20.9427 149.42 21.131ZM146.851 37.2689V24.671H149.159V37.2689H146.851Z" fill="white"/>
<path d="M160.669 37.2689L160.487 35.6804H160.408C159.957 36.2763 159.37 36.7572 158.695 37.0832C158.02 37.4091 157.277 37.5709 156.526 37.5549C153.957 37.5549 152.645 35.7596 152.645 33.9379C152.645 30.8929 155.374 29.2274 160.277 29.2516V28.992C160.277 27.9514 159.989 26.0768 157.395 26.0768C156.228 26.0805 155.084 26.4049 154.09 27.0141L153.565 25.5048C154.616 24.8272 156.136 24.3849 157.734 24.3849C161.616 24.3849 162.56 27.0251 162.56 29.5398V34.2503C162.547 35.2609 162.621 36.2708 162.782 37.2689H160.669ZM160.33 30.8401C157.812 30.7873 154.953 31.2317 154.953 33.6783C154.953 35.1612 155.95 35.863 157.129 35.863C157.8 35.8812 158.459 35.6867 159.011 35.3076C159.563 34.9286 159.978 34.3848 160.197 33.7553C160.28 33.521 160.325 33.2752 160.33 33.027V30.8401Z" fill="white"/>
<path d="M169.875 31.7444L168.039 37.2623H165.679L171.683 19.7207H174.443L180.474 37.2623H178.036L176.141 31.7444H169.875ZM175.669 29.9843L173.94 24.924C173.545 23.7777 173.275 22.7371 173.02 21.7228H172.969C172.705 22.7635 172.417 23.8305 172.082 24.8976L170.347 29.9843H175.669Z" fill="white"/>
<path d="M186 19.7273V37.2689H183.719V19.7273H186Z" fill="white"/>
</svg>